<svg xmlns:xlink="http://www.w3.org/1999/xlink" width="28.122" xmlns="http://www.w3.org/2000/svg" height="25.858" id="screenshot-adb3ef29-e2cc-8027-8003-0520fd87c1f9" viewBox="-1 -1 28.122 25.858" style="-webkit-print-color-adjust: exact;" fill="none" version="1.1"><g id="shape-adb3ef29-e2cc-8027-8003-0520fd87c1f9" width="24" class="feather feather-github" height="24" rx="0" ry="0" style="fill: rgb(0, 0, 0);"><g id="shape-adb3ef29-e2cc-8027-8003-0520fd87c1fb"><g class="fills" id="fills-adb3ef29-e2cc-8027-8003-0520fd87c1fb"><path fill="none" stroke-linecap="round" stroke-linejoin="round" rx="0" ry="0" d="M9.796,18.888C4.354,20.379,4.354,16.402,2.177,15.905M17.415,21.870L17.415,18.023C17.497,17.064,17.125,16.119,16.391,15.428C19.809,15.080,23.401,13.897,23.401,8.470C23.401,7.082,22.816,5.747,21.768,4.742C22.264,3.528,22.229,2.185,21.670,0.994C21.670,0.994,20.386,0.646,17.415,2.465C14.920,1.848,12.290,1.848,9.796,2.465C6.824,0.646,5.540,0.994,5.540,0.994C4.981,2.185,4.946,3.528,5.442,4.742C4.386,5.754,3.801,7.101,3.809,8.499C3.809,13.887,7.401,15.070,10.819,15.458C10.095,16.142,9.723,17.074,9.796,18.023L9.796,21.870" style="fill: none;"/></g><g id="strokes-adb3ef29-e2cc-8027-8003-0520fd87c1fb" class="strokes"><g class="stroke-shape"><path stroke-linecap="round" stroke-linejoin="round" rx="0" ry="0" d="M9.796,18.888C4.354,20.379,4.354,16.402,2.177,15.905M17.415,21.870L17.415,18.023C17.497,17.064,17.125,16.119,16.391,15.428C19.809,15.080,23.401,13.897,23.401,8.470C23.401,7.082,22.816,5.747,21.768,4.742C22.264,3.528,22.229,2.185,21.670,0.994C21.670,0.994,20.386,0.646,17.415,2.465C14.920,1.848,12.290,1.848,9.796,2.465C6.824,0.646,5.540,0.994,5.540,0.994C4.981,2.185,4.946,3.528,5.442,4.742C4.386,5.754,3.801,7.101,3.809,8.499C3.809,13.887,7.401,15.070,10.819,15.458C10.095,16.142,9.723,17.074,9.796,18.023L9.796,21.870" style="fill: none; stroke-width: 2; stroke: rgb(0, 0, 0); stroke-opacity: 1;"/></g></g></g></g></svg>