<svg xmlns:xlink="http://www.w3.org/1999/xlink" width="28.122" xmlns="http://www.w3.org/2000/svg" height="25.858" id="screenshot-adb3ef29-e2cc-8027-8003-0520fd87c1f4" viewBox="-1 -1 28.122 25.858" style="-webkit-print-color-adjust: exact;" fill="none" version="1.1"><g id="shape-adb3ef29-e2cc-8027-8003-0520fd87c1f4" width="24" class="feather feather-linkedin" height="24" rx="0" ry="0" style="fill: rgb(0, 0, 0);"><g id="shape-adb3ef29-e2cc-8027-8003-0520fd87c1f6"><g class="fills" id="fills-adb3ef29-e2cc-8027-8003-0520fd87c1f6"><path fill="none" stroke-linecap="round" stroke-linejoin="round" rx="0" ry="0" d="M17.415,7.953C21.021,7.953,23.945,10.623,23.945,13.917L23.945,20.876L19.591,20.876L19.591,13.917C19.591,12.819,18.617,11.929,17.415,11.929C16.212,11.929,15.238,12.819,15.238,13.917L15.238,20.876L10.884,20.876L10.884,13.917C10.884,10.623,13.808,7.953,17.415,7.953ZZ" style="fill: none;"/></g><g id="strokes-adb3ef29-e2cc-8027-8003-0520fd87c1f6" class="strokes"><g class="stroke-shape"><path stroke-linecap="round" stroke-linejoin="round" rx="0" ry="0" d="M17.415,7.953C21.021,7.953,23.945,10.623,23.945,13.917L23.945,20.876L19.591,20.876L19.591,13.917C19.591,12.819,18.617,11.929,17.415,11.929C16.212,11.929,15.238,12.819,15.238,13.917L15.238,20.876L10.884,20.876L10.884,13.917C10.884,10.623,13.808,7.953,17.415,7.953ZZ" style="fill: none; stroke-width: 2; stroke: rgb(0, 0, 0); stroke-opacity: 1;"/></g></g></g><g id="shape-adb3ef29-e2cc-8027-8003-0520fd87c1f7"><g class="fills" id="fills-adb3ef29-e2cc-8027-8003-0520fd87c1f7"><rect width="4.353645664154897" height="11.929067099879603" x="2.176822832076823" stroke-linejoin="round" transform="matrix(1.000000, 0.000000, 0.000000, 1.000000, 0.000000, 0.000000)" style="fill: none;" ry="0" fill="none" stroke-linecap="round" rx="0" y="8.946800324910328"/></g><g id="strokes-adb3ef29-e2cc-8027-8003-0520fd87c1f7" class="strokes"><g class="stroke-shape"><rect width="4.353645664154897" height="11.929067099879603" x="2.176822832076823" stroke-linejoin="round" transform="matrix(1.000000, 0.000000, 0.000000, 1.000000, 0.000000, 0.000000)" style="fill: none; stroke-width: 2; stroke: rgb(0, 0, 0); stroke-opacity: 1;" ry="0" stroke-linecap="round" rx="0" y="8.946800324910328"/></g></g></g><g id="shape-adb3ef29-e2cc-8027-8003-0520fd87c1f8"><g class="fills" id="fills-adb3ef29-e2cc-8027-8003-0520fd87c1f8"><ellipse cy="3.97635569996055" stroke-linejoin="round" transform="matrix(1.000000, 0.000000, 0.000000, 1.000000, 0.000000, 0.000000)" style="fill: none;" ry="1.988177849980275" fill="none" stroke-linecap="round" rx="2.1768228320774483" cx="4.353645664154271"/></g><g id="strokes-adb3ef29-e2cc-8027-8003-0520fd87c1f8" class="strokes"><g class="stroke-shape"><ellipse stroke-linecap="round" stroke-linejoin="round" rx="2.1768228320774483" ry="1.988177849980275" cx="4.353645664154271" cy="3.97635569996055" transform="matrix(1.000000, 0.000000, 0.000000, 1.000000, 0.000000, 0.000000)" style="fill: none; stroke-width: 2; stroke: rgb(0, 0, 0); stroke-opacity: 1;"/></g></g></g></g></svg>