<svg xmlns:xlink="http://www.w3.org/1999/xlink" width="35" xmlns="http://www.w3.org/2000/svg" height="35" id="screenshot-2602481a-0485-8016-8004-21c8b886228d" viewBox="-1 -1 35 35" style="-webkit-print-color-adjust: exact;" fill="none" version="1.1"><g id="shape-2602481a-0485-8016-8004-21c8b886228d" width="24" class="feather feather-globe" height="24" rx="0" ry="0" style="fill: rgb(0, 0, 0);"><g id="shape-2602481a-0485-8016-8004-21c8b8873b1b"><g class="fills" id="fills-2602481a-0485-8016-8004-21c8b8873b1b"><ellipse cy="16.5" stroke-linejoin="round" transform="matrix(1.000000, 0.000000, 0.000000, 1.000000, 0.000000, 0.000000)" style="fill: rgb(61, 90, 128); fill-opacity: 1;" ry="13.75" fill="none" stroke-linecap="round" rx="13.75" cx="16.5"/></g><g id="strokes-2602481a-0485-8016-8004-21c8b8873b1b" class="strokes"><g class="stroke-shape"><ellipse stroke-linecap="round" stroke-linejoin="round" rx="13.75" ry="13.75" cx="16.5" cy="16.5" transform="matrix(1.000000, 0.000000, 0.000000, 1.000000, 0.000000, 0.000000)" style="fill: none; stroke-width: 2; stroke: rgb(255, 255, 255); stroke-opacity: 1;"/></g></g></g><g id="shape-2602481a-0485-8016-8004-21c8b887a03f"><g class="fills" id="fills-2602481a-0485-8016-8004-21c8b887a03f"><path fill="none" stroke-linejoin="round" stroke-linecap="round" rx="0" ry="0" d="M2.750,16.500L30.250,16.500" style="fill: rgb(61, 90, 128); fill-opacity: 1;"/></g><g id="strokes-2602481a-0485-8016-8004-21c8b887a03f" class="strokes"><g class="stroke-shape"><path stroke-linejoin="round" stroke-linecap="round" rx="0" ry="0" d="M2.750,16.500L30.250,16.500" style="fill: none; stroke-width: 2; stroke: rgb(255, 255, 255); stroke-opacity: 1;"/></g></g></g><g id="shape-2602481a-0485-8016-8004-21c8b8882b2d"><g class="fills" id="fills-2602481a-0485-8016-8004-21c8b8882b2d"><path fill="none" stroke-linecap="round" stroke-linejoin="round" rx="0" ry="0" d="M16.500,2.750C19.939,6.515,21.894,11.402,22.000,16.500C21.894,21.598,19.939,26.485,16.500,30.250C13.061,26.485,11.106,21.598,11.000,16.500C11.106,11.402,13.061,6.515,16.500,2.750ZZ" style="fill: rgb(61, 90, 128); fill-opacity: 1;"/></g><g id="strokes-2602481a-0485-8016-8004-21c8b8882b2d" class="strokes"><g class="stroke-shape"><path stroke-linecap="round" stroke-linejoin="round" rx="0" ry="0" d="M16.500,2.750C19.939,6.515,21.894,11.402,22.000,16.500C21.894,21.598,19.939,26.485,16.500,30.250C13.061,26.485,11.106,21.598,11.000,16.500C11.106,11.402,13.061,6.515,16.500,2.750ZZ" style="fill: none; stroke-width: 2; stroke: rgb(255, 255, 255); stroke-opacity: 1;"/></g></g></g></g></svg>