<svg xmlns:xlink="http://www.w3.org/1999/xlink" width="55" xmlns="http://www.w3.org/2000/svg" height="55" id="screenshot-50ae4035-a650-8054-8003-0526694a7396" viewBox="-2.5 -2.5 55 55" style="-webkit-print-color-adjust: exact;" fill="none" version="1.1"><g id="shape-50ae4035-a650-8054-8003-0526694a7396" rx="0" ry="0"><g id="shape-50ae4035-a650-8054-8003-0526694a739f" rx="0" ry="0" style="fill: rgb(0, 0, 0);"><g id="shape-50ae4035-a650-8054-8003-0526694a73a2" rx="0" ry="0" style="fill: rgb(0, 0, 0);"><g id="shape-50ae4035-a650-8054-8003-0526694a73a3" rx="0" ry="0" style="fill: rgb(0, 0, 0);"><g id="shape-50ae4035-a650-8054-8003-0526694a73a4"><g class="fills" id="fills-50ae4035-a650-8054-8003-0526694a73a4"><path rx="0" ry="0" d="M36.329,46.689C36.329,46.689,34.881,47.600,31.731,48.343C27.489,49.343,29.578,49.219,25.240,49.304C21.405,49.380,23.234,49.434,19.471,48.583C15.521,47.690,13.671,46.689,13.671,46.689C12.303,45.891,10.844,45.061,9.856,44.256C8.956,43.524,8.463,42.852,8.463,41.481L8.463,39.758C8.463,31.489,15.881,24.758,25.000,24.758C34.119,24.758,41.537,31.485,41.537,39.758L41.537,41.481C41.537,42.862,40.901,43.300,39.904,44.256C39.346,44.791,39.183,45.458,36.329,46.689ZL36.329,46.689ZL36.329,46.689ZL36.329,46.689ZL36.329,46.689ZM25.000,26.845C17.029,26.845,10.546,32.637,10.546,39.762L10.546,41.485C10.546,42.483,11.110,43.100,11.779,43.776C12.267,44.269,12.733,44.977,13.462,44.977C13.462,44.977,17.287,47.381,25.000,47.381C32.393,47.381,36.538,45.218,36.538,45.218C37.709,44.383,39.454,43.211,39.454,41.485L39.454,39.758C39.454,32.637,32.971,26.845,25.000,26.845ZL25.000,26.845Z" style="fill: rgb(61, 90, 128); fill-opacity: 1;"/></g></g><g id="shape-50ae4035-a650-8054-8003-0526694a73a5"><g class="fills" id="fills-50ae4035-a650-8054-8003-0526694a73a5"><path rx="0" ry="0" d="M25.000,21.635C21.693,21.636,18.712,19.645,17.446,16.590C16.180,13.535,16.879,10.019,19.217,7.680C21.554,5.342,25.071,4.642,28.126,5.907C31.181,7.172,33.173,10.153,33.173,13.460C33.169,17.973,29.513,21.630,25.000,21.635ZL25.000,21.635ZM25.000,7.370C22.536,7.370,20.314,8.853,19.370,11.130C18.427,13.406,18.948,16.027,20.690,17.770C22.433,19.512,25.054,20.033,27.330,19.090C29.607,18.146,31.090,15.924,31.090,13.460C31.086,10.098,28.362,7.374,25.000,7.370ZL25.000,7.370Z" style="fill: rgb(61, 90, 128); fill-opacity: 1;"/></g></g></g></g></g><g id="shape-50ae4035-a650-8054-8003-0526694a73a0"><g class="fills" id="fills-50ae4035-a650-8054-8003-0526694a73a0"><ellipse rx="24.99999999999966" ry="25" cx="24.99999999999966" cy="25" transform="matrix(1.000000, 0.000000, 0.000000, 1.000000, 0.000000, 0.000000)"/></g><g id="strokes-50ae4035-a650-8054-8003-0526694a73a0" class="strokes"><g class="stroke-shape"><ellipse rx="24.99999999999966" ry="25" cx="24.99999999999966" cy="25" transform="matrix(1.000000, 0.000000, 0.000000, 1.000000, 0.000000, 0.000000)" style="fill: none; stroke-width: 5; stroke: rgb(61, 90, 128); stroke-opacity: 1;"/></g></g></g></g></svg>