<?xml version="1.0" encoding="utf-8"?>
<!-- Generated by Mocodo 4.2.4 -->
<svg width="729" height="263" viewBox="0 0 729 263" xmlns="http://www.w3.org/2000/svg">
<rect x="0" y="0" width="729" height="263" fill="#FFFFFF" stroke="none" stroke-width="0"/>

<!-- Association HAVE -->
<g>
	<line x1="181" y1="195" x2="181" y2="60" stroke="#000000" stroke-width="2"/>
	<line x1="68" y1="60" x2="181" y2="60" stroke="#000000" stroke-width="2"/>
	<g>
		<path d="M189 35 a14 14 90 0 1 14 14 V60 h-44 V49 a14 14 90 0 1 14 -14" fill="#FFFFFF" stroke="#FFFFFF" stroke-width="0"/>
		<path d="M203 60 v11 a14 14 90 0 1 -14 14 H173 a14 14 90 0 1 -14 -14 V60 H44" fill="#FFFFFF" stroke="#FFFFFF" stroke-width="0"/>
		<rect x="159" y="35" width="44" height="50" fill="none" rx="14" stroke="#000000" stroke-width="2"/>
		<line x1="159" y1="60" x2="203" y2="60" stroke="#000000" stroke-width="1"/>
		<text x="166" y="52.75" fill="#000000" font-family="Verdana" font-size="12">have</text>
	</g>
	<text x="186" y="145" fill="#000000" font-family="Verdana" font-size="12">1,1</text>
	<text x="132" y="77" fill="#000000" font-family="Verdana" font-size="12">0,1</text>
</g>

<!-- Association CONNECT -->
<g>
	<line x1="394" y1="195" x2="394" y2="60" stroke="#000000" stroke-width="2"/>
	<line x1="530" y1="60" x2="394" y2="60" stroke="#000000" stroke-width="2"/>
	<g>
		<path d="M411 35 a14 14 90 0 1 14 14 V60 h-62 V49 a14 14 90 0 1 14 -14" fill="#FFFFFF" stroke="#FFFFFF" stroke-width="0"/>
		<path d="M425 60 v11 a14 14 90 0 1 -14 14 H377 a14 14 90 0 1 -14 -14 V60 H62" fill="#FFFFFF" stroke="#FFFFFF" stroke-width="0"/>
		<rect x="363" y="35" width="62" height="50" fill="none" rx="14" stroke="#000000" stroke-width="2"/>
		<line x1="363" y1="60" x2="425" y2="60" stroke="#000000" stroke-width="1"/>
		<text x="370" y="52.75" fill="#000000" font-family="Verdana" font-size="12">connect</text>
	</g>
	<text x="399" y="145" fill="#000000" font-family="Verdana" font-size="12">0,N</text>
	<text x="430" y="77" fill="#000000" font-family="Verdana" font-size="12">0,N</text>
</g>

<!-- Association BELONG -->
<g>
	<line x1="663" y1="195" x2="663" y2="60" stroke="#000000" stroke-width="2"/>
	<line x1="530" y1="60" x2="663" y2="60" stroke="#000000" stroke-width="2"/>
	<g>
		<path d="M677 35 a14 14 90 0 1 14 14 V60 h-56 V49 a14 14 90 0 1 14 -14" fill="#FFFFFF" stroke="#FFFFFF" stroke-width="0"/>
		<path d="M691 60 v11 a14 14 90 0 1 -14 14 H649 a14 14 90 0 1 -14 -14 V60 H56" fill="#FFFFFF" stroke="#FFFFFF" stroke-width="0"/>
		<rect x="635" y="35" width="56" height="50" fill="none" rx="14" stroke="#000000" stroke-width="2"/>
		<line x1="635" y1="60" x2="691" y2="60" stroke="#000000" stroke-width="1"/>
		<text x="643" y="52.75" fill="#000000" font-family="Verdana" font-size="12">belong</text>
	</g>
	<text x="668" y="128" fill="#000000" font-family="Verdana" font-size="12">1,1</text>
	<text x="608" y="77" fill="#000000" font-family="Verdana" font-size="12">0,N</text>
</g>

<!-- Association BE -->
<g>
	<line x1="283" y1="60" x2="283" y2="195" stroke="#000000" stroke-width="2"/>
	<line x1="181" y1="195" x2="283" y2="195" stroke="#000000" stroke-width="2"/>
	<g>
		<path d="M284 170 a14 14 90 0 1 14 14 V195 h-30 V184 a14 14 90 0 1 14 -14" fill="#FFFFFF" stroke="#FFFFFF" stroke-width="0"/>
		<path d="M298 195 v11 a14 14 90 0 1 -14 14 H282 a14 14 90 0 1 -14 -14 V195 H30" fill="#FFFFFF" stroke="#FFFFFF" stroke-width="0"/>
		<rect x="268" y="170" width="30" height="50" fill="none" rx="14" stroke="#000000" stroke-width="2"/>
		<line x1="268" y1="195" x2="298" y2="195" stroke="#000000" stroke-width="1"/>
		<text x="275" y="187.75" fill="#000000" font-family="Verdana" font-size="12">be</text>
	</g>
	<text x="288" y="111" fill="#000000" font-family="Verdana" font-size="12">1,1</text>
	<text x="235" y="212" fill="#000000" font-family="Verdana" font-size="12">0,1</text>
</g>

<!-- Association MAKE -->
<g>
	<line x1="394" y1="195" x2="530" y2="195" stroke="#000000" stroke-width="2"/>
	<line x1="663" y1="195" x2="530" y2="195" stroke="#000000" stroke-width="2"/>
	<g>
		<path d="M540 170 a14 14 90 0 1 14 14 V195 h-48 V184 a14 14 90 0 1 14 -14" fill="#FFFFFF" stroke="#FFFFFF" stroke-width="0"/>
		<path d="M554 195 v11 a14 14 90 0 1 -14 14 H520 a14 14 90 0 1 -14 -14 V195 H48" fill="#FFFFFF" stroke="#FFFFFF" stroke-width="0"/>
		<rect x="506" y="170" width="48" height="50" fill="none" rx="14" stroke="#000000" stroke-width="2"/>
		<line x1="506" y1="195" x2="554" y2="195" stroke="#000000" stroke-width="1"/>
		<text x="513" y="187.75" fill="#000000" font-family="Verdana" font-size="12">make</text>
	</g>
	<text x="463" y="212" fill="#000000" font-family="Verdana" font-size="12">0,N</text>
	<text x="579" y="212" fill="#000000" font-family="Verdana" font-size="12">1,N</text>
</g>

<!-- Entity REGISTER -->
<g>
	<g>
		<rect x="9" y="18" width="118" height="25" fill="#FFFFFF" stroke="none" stroke-width="0" opacity="1"/>
		<rect x="9" y="43" width="118" height="59" fill="#FFFFFF" stroke="none" stroke-width="0" opacity="1"/>
		<rect x="9" y="18" width="118" height="84" fill="none" stroke="#000000" stroke-width="2" opacity="1"/>
		<line x1="9" y1="43" x2="127" y2="43" stroke="#000000" stroke-width="1"/>
	</g>
	<text x="37" y="35.75" fill="#000000" font-family="Verdana" font-size="12">REGISTER</text>
	<text x="14" y="60.8" fill="#000000" font-family="Verdana" font-size="12">register_identifier</text>
	<line x1="14" y1="63" x2="122" y2="63" stroke="#000000" stroke-width="1"/>
	<text x="14" y="77.8" fill="#000000" font-family="Verdana" font-size="12">mail</text>
	<text x="14" y="94.8" fill="#000000" font-family="Verdana" font-size="12">password</text>
</g>

<!-- Entity ROLES -->
<g>
	<g>
		<rect x="235" y="26" width="96" height="25" fill="#FFFFFF" stroke="none" stroke-width="0" opacity="1"/>
		<rect x="235" y="51" width="96" height="43" fill="#FFFFFF" stroke="none" stroke-width="0" opacity="1"/>
		<rect x="235" y="26" width="96" height="68" fill="none" stroke="#000000" stroke-width="2" opacity="1"/>
		<line x1="235" y1="51" x2="331" y2="51" stroke="#000000" stroke-width="1"/>
	</g>
	<text x="263" y="43.75" fill="#000000" font-family="Verdana" font-size="12">ROLES</text>
	<text x="240" y="68.8" fill="#000000" font-family="Verdana" font-size="12">role_identifier</text>
	<line x1="240" y1="71" x2="325" y2="71" stroke="#000000" stroke-width="1"/>
	<text x="240" y="85.8" fill="#000000" font-family="Verdana" font-size="12">label</text>
</g>

<!-- Entity ORGANIZATIONS -->
<g>
	<g>
		<rect x="457" y="9" width="146" height="25" fill="#FFFFFF" stroke="none" stroke-width="0" opacity="1"/>
		<rect x="457" y="34" width="146" height="77" fill="#FFFFFF" stroke="none" stroke-width="0" opacity="1"/>
		<rect x="457" y="9" width="146" height="102" fill="none" stroke="#000000" stroke-width="2" opacity="1"/>
		<line x1="457" y1="34" x2="603" y2="34" stroke="#000000" stroke-width="1"/>
	</g>
	<text x="477" y="26.75" fill="#000000" font-family="Verdana" font-size="12">ORGANIZATIONS</text>
	<text x="462" y="51.8" fill="#000000" font-family="Verdana" font-size="12">organization_identifier</text>
	<line x1="462" y1="54" x2="598" y2="54" stroke="#000000" stroke-width="1"/>
	<text x="462" y="68.8" fill="#000000" font-family="Verdana" font-size="12">title</text>
	<text x="462" y="85.8" fill="#000000" font-family="Verdana" font-size="12">description</text>
	<text x="462" y="102.8" fill="#000000" font-family="Verdana" font-size="12">picture</text>
</g>

<!-- Entity USERS -->
<g>
	<g>
		<rect x="132" y="153" width="98" height="25" fill="#FFFFFF" stroke="none" stroke-width="0" opacity="1"/>
		<rect x="132" y="178" width="98" height="59" fill="#FFFFFF" stroke="none" stroke-width="0" opacity="1"/>
		<rect x="132" y="153" width="98" height="84" fill="none" stroke="#000000" stroke-width="2" opacity="1"/>
		<line x1="132" y1="178" x2="230" y2="178" stroke="#000000" stroke-width="1"/>
	</g>
	<text x="160" y="170.75" fill="#000000" font-family="Verdana" font-size="12">USERS</text>
	<text x="137" y="195.8" fill="#000000" font-family="Verdana" font-size="12">user_identifier</text>
	<line x1="137" y1="198" x2="225" y2="198" stroke="#000000" stroke-width="1"/>
	<text x="137" y="212.8" fill="#000000" font-family="Verdana" font-size="12">lastname</text>
	<text x="137" y="229.8" fill="#000000" font-family="Verdana" font-size="12">firstname</text>
</g>

<!-- Entity LANGUAGES -->
<g>
	<g>
		<rect x="330" y="153" width="128" height="25" fill="#FFFFFF" stroke="none" stroke-width="0" opacity="1"/>
		<rect x="330" y="178" width="128" height="59" fill="#FFFFFF" stroke="none" stroke-width="0" opacity="1"/>
		<rect x="330" y="153" width="128" height="84" fill="none" stroke="#000000" stroke-width="2" opacity="1"/>
		<line x1="330" y1="178" x2="458" y2="178" stroke="#000000" stroke-width="1"/>
	</g>
	<text x="356" y="170.75" fill="#000000" font-family="Verdana" font-size="12">LANGUAGES</text>
	<text x="335" y="195.8" fill="#000000" font-family="Verdana" font-size="12">language_identifier</text>
	<line x1="335" y1="198" x2="452" y2="198" stroke="#000000" stroke-width="1"/>
	<text x="335" y="212.8" fill="#000000" font-family="Verdana" font-size="12">label</text>
	<text x="335" y="229.8" fill="#000000" font-family="Verdana" font-size="12">picture</text>
</g>

<!-- Entity PROJECTS -->
<g>
	<g>
		<rect x="606" y="136" width="114" height="25" fill="#FFFFFF" stroke="none" stroke-width="0" opacity="1"/>
		<rect x="606" y="161" width="114" height="93" fill="#FFFFFF" stroke="none" stroke-width="0" opacity="1"/>
		<rect x="606" y="136" width="114" height="118" fill="none" stroke="#000000" stroke-width="2" opacity="1"/>
		<line x1="606" y1="161" x2="720" y2="161" stroke="#000000" stroke-width="1"/>
	</g>
	<text x="632" y="153.75" fill="#000000" font-family="Verdana" font-size="12">PROJECTS</text>
	<text x="611" y="178.8" fill="#000000" font-family="Verdana" font-size="12">project_identifier</text>
	<line x1="611" y1="181" x2="715" y2="181" stroke="#000000" stroke-width="1"/>
	<text x="611" y="195.8" fill="#000000" font-family="Verdana" font-size="12">title</text>
	<text x="611" y="212.8" fill="#000000" font-family="Verdana" font-size="12">picture</text>
	<text x="611" y="229.8" fill="#000000" font-family="Verdana" font-size="12">url</text>
</g>
</svg>