<svg xmlns:xlink="http://www.w3.org/1999/xlink" width="26" xmlns="http://www.w3.org/2000/svg" height="26" id="screenshot-41c37edb-49a1-8025-8004-244cf6fd7eac" viewBox="-1 -1 26 26" style="-webkit-print-color-adjust: exact;" fill="none" version="1.1"><g id="shape-41c37edb-49a1-8025-8004-244cf6fd7eac" width="24" class="feather feather-coffee" height="24" rx="0" ry="0" style="fill: rgb(0, 0, 0);"><g id="shape-41c37edb-49a1-8025-8004-244cf6ff4485"><g class="fills" id="fills-41c37edb-49a1-8025-8004-244cf6ff4485"><path fill="none" stroke-linecap="round" stroke-linejoin="round" rx="0" ry="0" d="M18.000,8.000L19.000,8.000C21.209,8.000,23.000,9.791,23.000,12.000C23.000,14.209,21.209,16.000,19.000,16.000L18.000,16.000" style="fill: none;"/></g><g id="strokes-41c37edb-49a1-8025-8004-244cf6ff4485" class="strokes"><g class="stroke-shape"><path stroke-linecap="round" stroke-linejoin="round" rx="0" ry="0" d="M18.000,8.000L19.000,8.000C21.209,8.000,23.000,9.791,23.000,12.000C23.000,14.209,21.209,16.000,19.000,16.000L18.000,16.000" style="fill: none; stroke-width: 2; stroke: rgb(61, 90, 128); stroke-opacity: 1;"/></g></g></g><g id="shape-41c37edb-49a1-8025-8004-244cf7016977"><g class="fills" id="fills-41c37edb-49a1-8025-8004-244cf7016977"><path fill="none" stroke-linecap="round" stroke-linejoin="round" rx="0" ry="0" d="M2.000,8.000L18.000,8.000L18.000,17.000C18.000,19.209,16.209,21.000,14.000,21.000L6.000,21.000C3.791,21.000,2.000,19.209,2.000,17.000L2.000,8.000ZZ" style="fill: none;"/></g><g id="strokes-41c37edb-49a1-8025-8004-244cf7016977" class="strokes"><g class="stroke-shape"><path stroke-linecap="round" stroke-linejoin="round" rx="0" ry="0" d="M2.000,8.000L18.000,8.000L18.000,17.000C18.000,19.209,16.209,21.000,14.000,21.000L6.000,21.000C3.791,21.000,2.000,19.209,2.000,17.000L2.000,8.000ZZ" style="fill: none; stroke-width: 2; stroke: rgb(61, 90, 128); stroke-opacity: 1;"/></g></g></g><g id="shape-41c37edb-49a1-8025-8004-244cf701ed45"><g class="fills" id="fills-41c37edb-49a1-8025-8004-244cf701ed45"><path fill="none" stroke-linejoin="round" stroke-linecap="round" rx="0" ry="0" d="M6.000,1.000L6.000,4.000" style="fill: none;"/></g><g id="strokes-41c37edb-49a1-8025-8004-244cf701ed45" class="strokes"><g class="stroke-shape"><path stroke-linejoin="round" stroke-linecap="round" rx="0" ry="0" d="M6.000,1.000L6.000,4.000" style="fill: none; stroke-width: 2; stroke: rgb(61, 90, 128); stroke-opacity: 1;"/></g></g></g><g id="shape-41c37edb-49a1-8025-8004-244cf702bd27"><g class="fills" id="fills-41c37edb-49a1-8025-8004-244cf702bd27"><path fill="none" stroke-linejoin="round" stroke-linecap="round" rx="0" ry="0" d="M10.000,1.000L10.000,4.000" style="fill: none;"/></g><g id="strokes-41c37edb-49a1-8025-8004-244cf702bd27" class="strokes"><g class="stroke-shape"><path stroke-linejoin="round" stroke-linecap="round" rx="0" ry="0" d="M10.000,1.000L10.000,4.000" style="fill: none; stroke-width: 2; stroke: rgb(61, 90, 128); stroke-opacity: 1;"/></g></g></g><g id="shape-41c37edb-49a1-8025-8004-244cf7034ba0"><g class="fills" id="fills-41c37edb-49a1-8025-8004-244cf7034ba0"><path fill="none" stroke-linejoin="round" stroke-linecap="round" rx="0" ry="0" d="M14.000,1.000L14.000,4.000" style="fill: none;"/></g><g id="strokes-41c37edb-49a1-8025-8004-244cf7034ba0" class="strokes"><g class="stroke-shape"><path stroke-linejoin="round" stroke-linecap="round" rx="0" ry="0" d="M14.000,1.000L14.000,4.000" style="fill: none; stroke-width: 2; stroke: rgb(61, 90, 128); stroke-opacity: 1;"/></g></g></g></g></svg>